<svg id="Layer_1" data-name="Layer 1" xmlns="http://www.w3.org/2000/svg" viewBox="0 0 59.33 59.33"><defs><style>.cls-1{fill:#43a139;}.cls-2{fill:#f2f2f2;}</style></defs><title>Яблоко_logo</title><rect class="cls-1" width="59.33" height="59.33" rx="7.13" ry="7.13"/><path class="cls-2" d="M13.42,54.24,22.47,38.7a1,1,0,0,0-.55-1.4c-6-2.1-7.65-6.81-7.65-11.67,0-6,3.13-11.2,11.69-11.62,1.37-.07,2.4,1,3.69.5a8.87,8.87,0,0,1,3.44-.73h9.49V54.24H36.87v-16H31a3.15,3.15,0,0,0-2.74,1.59L20.1,54.24ZM36.87,23.91a5.52,5.52,0,0,0-5.52-5.52H28.67c-5.35,0-8.26,1.94-8.32,7.23-.06,4.19,1.76,8,9.23,8h7.29Z"/><path class="cls-2" d="M28,13.21s-2.45-5.88-4.35-7.08c-1.26-.8-6.2-1-6.2-1s.77,3.56,1.68,4.45C20.74,11.11,28,13.21,28,13.21Z"/></svg>